<?xml version="1.0" encoding="utf-8"?>
<!-- Generator: Adobe Illustrator 24.0.1, SVG Export Plug-In . SVG Version: 6.00 Build 0)  -->
<svg version="1.1" id="Layer_1" xmlns="http://www.w3.org/2000/svg" xmlns:xlink="http://www.w3.org/1999/xlink" x="0px" y="0px"
	 viewBox="0 0 764.9 203.2" style="enable-background:new 0 0 764.9 203.2;" xml:space="preserve">
<style type="text/css">
	.st0{fill:#FFFFFF;}
</style>
<title>Asset 1</title>
<g id="Layer_2_1_">
	<g id="Layer_1-2">
		<g id="레이어_2">
			<g id="레이어_1-2">
				<g id="레이어_2-2">
					<g id="레이어_1-2-2">
						<g>
							<path class="st0" d="M0,0h57.1c20-0.1,39.2,7.8,53.3,21.8c14.4,14.5,22.5,34.3,22.3,54.8c0.1,10.7-1.9,21.2-6,31.1
								c-3.8,9-9.3,17.2-16.3,24.1c-6.8,6.8-15,12.2-24,15.8c-9.3,3.7-19.3,5.6-29.3,5.6H0V0z M27.1,29v97.7h29.9
								c6.3,0,12.4-1.2,18.2-3.6c5.6-2.4,10.7-5.8,15-10.1c4.3-4.6,7.7-9.9,10-15.8c2.5-6.6,3.8-13.6,3.7-20.7
								c0.1-6.9-1.1-13.8-3.7-20.2c-2.3-5.6-5.7-10.8-10-15.1c-4.3-4-9.4-7.1-15-9.2c-5.8-2.1-12-3.2-18.2-3.1L27.1,29z"/>
						</g>
						<g>
							<path class="st0" d="M195.6,155.4c-8.2,0.1-16.3-1.5-23.9-4.6c-7.1-3-13.5-7.4-18.8-13c-5.3-5.7-9.5-12.4-12.2-19.7
								c-2.9-7.9-4.4-16.4-4.3-24.8c-0.1-8.3,1.4-16.6,4.3-24.4c2.7-7.3,6.9-14,12.2-19.7c5.3-5.6,11.7-10.1,18.8-13.1
								c7.6-3.2,15.7-4.8,23.9-4.8c8.4-0.1,16.8,1.5,24.6,4.8c7.2,3,13.7,7.5,19,13.1c5.3,5.7,9.5,12.4,12.3,19.7
								c3,7.8,4.5,16,4.4,24.4c0.1,8.5-1.4,16.9-4.4,24.8c-2.8,7.3-6.9,14-12.3,19.7c-5.3,5.6-11.8,10.1-19,13
								C212.4,154,204,155.6,195.6,155.4z M195.6,57.3c-9.3-0.2-18.3,3.8-24.4,10.9c-2.9,3.4-5.2,7.3-6.6,11.6
								c-1.5,4.3-2.2,8.9-2.2,13.5c0,4.6,0.7,9.2,2.2,13.6c1.4,4.2,3.6,8.2,6.6,11.5c2.8,3.4,6.3,6.2,10.3,8.1c4.4,2.1,9.2,3.1,14,3
								c5.1,0.1,10.1-0.9,14.7-3c4.1-1.9,7.8-4.7,10.8-8.1c3-3.3,5.2-7.2,6.6-11.5c1.5-4.4,2.2-9,2.2-13.6c0-4.6-0.7-9.1-2.2-13.4
								c-1.4-4.3-3.6-8.2-6.6-11.6C214.6,61,205.3,57,195.6,57.3L195.6,57.3z"/>
						</g>
						<g>
							<path class="st0" d="M334.6,61.2c-3.6-1.3-7.5-2-11.4-1.9c-8.8,0-15.8,3.1-20.9,9.2c-5.1,6.1-7.7,14.1-7.7,24v60.6h-26V68.4
								c0.1-4.4-3.4-8-7.7-8.1c-0.1,0-0.3,0-0.4,0V33.4c5.5-0.1,10.8,1.3,15.5,4.1c4.5,2.7,8.3,6.5,11.1,11
								c4.7-4.7,10.2-8.4,16.2-11c6.2-2.7,12.9-4.1,19.7-4.1c6.9-0.1,13.8,1,20.4,3.2L334.6,61.2z"/>
						</g>
						<g>
							<path class="st0" d="M503.9,0v38.3h21.8v26h-21.8v43.6c-0.1,4.6,1.6,9.1,4.8,12.5c3.2,3.6,8.2,5.3,15.2,5.3v27.4
								c-6.8,0.1-13.6-1-20-3.5c-5.4-2.1-10.3-5.4-14.4-9.5c-3.9-3.8-6.8-8.5-8.7-13.6c-1.9-5.2-2.9-10.8-2.9-16.4v-46H458v-26h20V0
								H503.9z"/>
						</g>
						<g>
							<path class="st0" d="M624.5,153.1V93.3c0-4.4-0.6-8.8-1.9-13c-1.2-3.9-3.1-7.5-5.6-10.7c-2.6-3.1-5.9-5.6-9.5-7.3
								c-4-1.8-8.4-2.8-12.8-2.7c-3.7,0-7.4,0.7-10.9,2c-3.7,1.3-7.1,3.3-10,5.9c-3.1,3-5.5,6.6-7.2,10.6c-2,4.8-2.9,10-2.8,15.2
								v59.9h-26V0h26.9v43.6c4.4-3,9.1-5.4,14-7.3c5.1-1.8,10.5-2.8,15.9-2.7c7.8-0.1,15.5,1.1,22.9,3.6c6.7,2.3,12.7,6,17.8,11
								c5,5.3,8.8,11.6,11.1,18.6c2.6,7.4,3.9,16.2,3.9,26.4v59.9L624.5,153.1z"/>
						</g>
						<g>
							<path class="st0" d="M764.9,33.6v117.2c0.1,7.3-1,14.6-3.4,21.6c-2.1,6.2-5.3,11.8-9.6,16.7c-4.3,4.6-9.5,8.1-15.3,10.4
								c-6.5,2.5-13.4,3.8-20.4,3.7c-5.8,0-11.7-0.7-17.4-1.9c-5.9-1.2-11.5-3.4-16.7-6.5c-5.1-3.1-9.4-7.4-12.5-12.5
								c-3.2-5.3-4.9-12-4.9-20.2l25.5,0.2c0.3,2.6,1.3,5.2,2.9,7.3c1.5,2,3.4,3.5,5.7,4.5c2.3,1.1,4.8,1.9,7.4,2.3
								c2.8,0.5,5.7,0.7,8.6,0.7c7.7,0,13.7-2.1,17.9-6.3s6.3-10.9,6.3-20.2v-9.5c-5.9,7.9-15,11.8-27.4,11.8
								c-7.5,0.2-14.8-1.4-21.6-4.6c-6.1-3-11.4-7.4-15.6-12.8c-4.4-5.6-7.6-12-9.5-18.9c-2.2-7.7-3.3-15.6-3.2-23.6V33.6h26v57.3
								c0,4.6,0.4,9.1,1.3,13.6c0.7,4.1,2.2,8,4.3,11.5c1.8,3.3,4.4,6.1,7.7,8.1c3.6,2.1,7.7,3.1,11.8,3c4.3,0.1,8.5-0.9,12.2-3
								c3.3-2,6.2-4.8,8.2-8.1c2.1-3.5,3.6-7.4,4.4-11.5c0.9-4.5,1.4-9,1.4-13.6V33.6H764.9z"/>
						</g>
					</g>
				</g>
				<path class="st0" d="M395.5,33.8c-23.9,0-45.5,14.3-54.8,36.3c-1.1,2.3-0.1,5,2.2,6.1c0,0,0,0,0.1,0l0,0c2.3,1,4.9,0,5.9-2.3
					l0.1-0.1h0.1c10.8-25.6,40.4-37.6,66-26.8c4.6,2,8.9,4.6,12.8,7.8c2,1.6,4.9,1.3,6.5-0.6c1.6-1.9,1.3-4.8-0.6-6.4
					C423.1,38.7,409.5,33.8,395.5,33.8z M395.5,52.1c-4.7,0-9.3,0.8-13.7,2.3c-2.4,0.8-3.8,3.4-3,5.8s3.4,3.8,5.8,3
					c0.1,0,0.2-0.1,0.3-0.1l0,0c3.4-1.2,7-1.8,10.6-1.8c17.7-0.1,32,14.2,32.1,31.9c0,0,0,0,0,0v0.1c0,13.5-4.5,44.3-4.5,44.3
					c-0.7,2.4,0.7,5,3.1,5.7c2.4,0.7,5-0.7,5.7-3.1c0.1-0.3,0.1-0.6,0.2-0.9V139c0,0,4.7-30.2,4.7-45.7
					C436.8,70.5,418.3,52,395.5,52.1z M443.7,62.2c-2.4-0.1-4.4,1.9-4.5,4.3c0,0,0,0,0,0c0,0.1,0,0.2,0,0.3c0,0.8,0.2,1.5,0.6,2.2
					c4,7.4,6.1,15.7,6.1,24.2c0,4.9-0.7,9.7-2.1,14.4c-0.8,2.4,0.5,5,2.9,5.9c2.4,0.8,5-0.5,5.8-2.9c0-0.1,0.1-0.2,0.1-0.3
					c1.6-5.6,2.5-11.3,2.5-17.1c0-10-2.5-19.8-7.3-28.6C447,63.1,445.4,62.2,443.7,62.2z M366.4,66.2c-1.3,0.1-2.6,0.7-3.4,1.8
					c-5.6,7.2-8.7,16.1-8.7,25.3c0,21.6-3.6,35.6-3.6,35.6c-0.7,2.5,0.7,5,3.2,5.7c2.5,0.7,5-0.7,5.7-3.2l0,0v-0.3
					c0,0,3.9-15.2,3.9-37.8c0-7.1,2.4-14.1,6.8-19.7c1.5-2,1.2-4.8-0.7-6.4C368.7,66.5,367.6,66.1,366.4,66.2z M395.5,70.4
					c-12.6,0.1-22.8,10.3-22.9,22.9c0,32.2-4.4,49-4.4,49c-0.7,2.4,0.6,5,3,5.7c2.4,0.7,5-0.6,5.8-3l0,0c0-0.2,0-0.3,0.1-0.4
					s4.7-18.3,4.7-51.3c0.6-7.6,7.3-13.2,14.9-12.6c6.7,0.6,12,5.9,12.6,12.6c0,5.5-0.2,11.2-0.6,16.8c-0.2,2.5,1.7,4.7,4.2,4.9
					c2.5,0.2,4.7-1.6,4.9-4.1c0,0,0-0.1,0-0.1l0,0c0.4-5.7,0.7-11.6,0.7-17.4C418.5,80.7,408.2,70.4,395.5,70.4L395.5,70.4
					L395.5,70.4z M340.5,85c-2.4,0.1-4.3,1.9-4.4,4.3c-0.1,1.3-0.1,2.7-0.1,4c0,4.9,0.6,9.8,1.8,14.6c0.6,2.4,3.1,3.9,5.5,3.4
					c2.4-0.6,4-3,3.4-5.5v-0.2c-1-4-1.5-8.2-1.5-12.3c0-1.1,0-2.3,0.1-3.4c0.2-2.5-1.7-4.7-4.2-4.9L340.5,85z M395.5,88.7
					c-2.5,0-4.5,2-4.5,4.5c0,0,0,0,0,0v0.1c0,10.3-0.5,20.6-1.6,30.9c-0.1,2.5,1.9,4.7,4.4,4.8c2.2,0.1,4.2-1.5,4.7-3.7v-0.2
					c1.1-10.6,1.6-21.2,1.6-31.8c0.1-2.5-1.9-4.5-4.4-4.6c0,0,0,0,0,0L395.5,88.7L395.5,88.7z M411.4,126.5c-2.4,0-4.3,1.8-4.6,4.1
					c-1,9.2-2,15.4-2,15.4c-0.7,2.4,0.7,5,3.1,5.7c2.4,0.7,4.9-0.6,5.7-3c0.1-0.4,0.2-0.8,0.2-1.3l0,0c0,0,1-6.4,2.1-15.8
					c0.4-2.5-1.4-4.7-3.8-5.1c0,0,0,0,0,0L411.4,126.5L411.4,126.5z M391.1,138.6c-2.2,0-4.1,1.5-4.5,3.6c-0.3,1.6-0.7,3.1-1.2,4.6
					c-0.7,2.5,0.7,5,3.2,5.7c2.3,0.7,4.8-0.6,5.6-2.9l0,0c0,0,0.6-1.9,1.3-5.4c0.6-2.4-0.8-4.9-3.3-5.5c0,0,0,0,0,0h-0.1
					L391.1,138.6z"/>
			</g>
		</g>
	</g>
</g>
</svg>
