<svg xmlns="http://www.w3.org/2000/svg" viewBox="0 0 764.94 203.23"><defs><style>.cls-1{isolation:isolate;}</style></defs><title>Asset 1</title><g id="Layer_2" data-name="Layer 2"><g id="Layer_1-2" data-name="Layer 1"><g id="레이어_2" data-name="레이어 2"><g id="레이어_1-2" data-name="레이어 1-2"><g id="레이어_2-2" data-name="레이어 2-2"><g id="레이어_1-2-2" data-name="레이어 1-2-2"><g class="cls-1"><path d="M8.58,21.81H65.66A75.31,75.31,0,0,1,119,43.62a76.77,76.77,0,0,1,22.27,54.75,78.53,78.53,0,0,1-6,31.09A73.79,73.79,0,0,1,119,153.58a71.27,71.27,0,0,1-24,15.78,77.71,77.71,0,0,1-29.34,5.57H8.58Zm27.15,29v97.67H65.66a46.09,46.09,0,0,0,18.21-3.6,46.8,46.8,0,0,0,15-10.09,48.28,48.28,0,0,0,10-15.77,55.26,55.26,0,0,0,3.71-20.65,51.74,51.74,0,0,0-3.71-20.19,46.8,46.8,0,0,0-10-15.08,44.46,44.46,0,0,0-15-9.16,52.07,52.07,0,0,0-18.21-3.13Z" transform="translate(-8.58 -21.81)"/></g><g class="cls-1"><path d="M204.18,177.25a60.49,60.49,0,0,1-23.9-4.64,55.38,55.38,0,0,1-18.79-13,58.37,58.37,0,0,1-12.18-19.72A69.81,69.81,0,0,1,145,115.07a68.43,68.43,0,0,1,4.29-24.36A58.47,58.47,0,0,1,161.49,71a56.84,56.84,0,0,1,18.79-13.11,59.33,59.33,0,0,1,23.9-4.75,62.15,62.15,0,0,1,24.59,4.75A56.23,56.23,0,0,1,247.8,71a60.18,60.18,0,0,1,12.29,19.72,66.77,66.77,0,0,1,4.41,24.36,68.11,68.11,0,0,1-4.41,24.83,60.08,60.08,0,0,1-12.29,19.72,54.83,54.83,0,0,1-19,13A63.37,63.37,0,0,1,204.18,177.25Zm0-98.14A31.27,31.27,0,0,0,179.82,90a34.52,34.52,0,0,0-6.61,11.6A41.54,41.54,0,0,0,171,115.07a42.58,42.58,0,0,0,2.21,13.57,32,32,0,0,0,6.61,11.49,30.47,30.47,0,0,0,10.32,8.12,31.49,31.49,0,0,0,14,3,34.09,34.09,0,0,0,14.73-3,32.37,32.37,0,0,0,10.79-8.12,32,32,0,0,0,6.61-11.49,42.58,42.58,0,0,0,2.21-13.57,41.54,41.54,0,0,0-2.21-13.45A34.52,34.52,0,0,0,229.7,90a33.35,33.35,0,0,0-25.52-10.91Z" transform="translate(-8.58 -21.81)"/></g><g class="cls-1"><path d="M343.14,83.06a30.69,30.69,0,0,0-11.37-1.86q-13.23,0-20.88,9.16t-7.66,24v60.55h-26V90.25a7.93,7.93,0,0,0-8.12-8.12V55.22a29.48,29.48,0,0,1,15.54,4.06,33.6,33.6,0,0,1,11.14,11,52.32,52.32,0,0,1,16.24-11,48.58,48.58,0,0,1,19.72-4.06,61.53,61.53,0,0,1,20.41,3.24Z" transform="translate(-8.58 -21.81)"/></g><g class="cls-1"><path d="M512.5,21.81V60.09h21.8v26H512.5v43.62a18.24,18.24,0,0,0,4.75,12.53q4.75,5.34,15.2,5.33v27.38a52.82,52.82,0,0,1-20-3.48,41,41,0,0,1-14.39-9.51,37.4,37.4,0,0,1-8.7-13.58,46.45,46.45,0,0,1-2.9-16.35V86.07H466.56v-26h19.95V21.81Z" transform="translate(-8.58 -21.81)"/></g><g class="cls-1"><path d="M633.1,174.93V115.07a43.86,43.86,0,0,0-1.86-13,32,32,0,0,0-5.57-10.67,28.58,28.58,0,0,0-9.51-7.31,29.17,29.17,0,0,0-12.76-2.67,32.61,32.61,0,0,0-10.9,2,29.72,29.72,0,0,0-10,5.92,31.66,31.66,0,0,0-7.19,10.56,37.73,37.73,0,0,0-2.79,15.19v59.86h-26V21.81h26.91V65.42a69.79,69.79,0,0,1,14-7.3,44.69,44.69,0,0,1,15.89-2.67A69.28,69.28,0,0,1,626.25,59a46.4,46.4,0,0,1,17.75,11,50.76,50.76,0,0,1,11.14,18.56q3.93,11.14,3.94,26.45v59.86Z" transform="translate(-8.58 -21.81)"/></g><g class="cls-1"><path d="M773.52,55.45V172.61a65.78,65.78,0,0,1-3.36,21.57,48.29,48.29,0,0,1-9.63,16.71,43,43,0,0,1-15.31,10.44A53.5,53.5,0,0,1,724.8,225a86.37,86.37,0,0,1-17.4-1.86,52.3,52.3,0,0,1-16.7-6.49,37.35,37.35,0,0,1-12.53-12.53q-4.87-7.89-4.87-20.18l25.52.23a15.86,15.86,0,0,0,2.9,7.31A14.85,14.85,0,0,0,707.4,196a26,26,0,0,0,7.42,2.32,52.69,52.69,0,0,0,8.59.7q11.6,0,17.86-6.27t6.27-20.18V163.1q-8.82,11.82-27.38,11.83a47.72,47.72,0,0,1-21.58-4.64A44.58,44.58,0,0,1,683,157.53a54.88,54.88,0,0,1-9.51-18.91,82.74,82.74,0,0,1-3.25-23.55V55.45h26v57.3a71.44,71.44,0,0,0,1.28,13.57,33.82,33.82,0,0,0,4.29,11.49,21.51,21.51,0,0,0,7.66,8.12,22.06,22.06,0,0,0,11.83,3,23.16,23.16,0,0,0,12.18-3,25.16,25.16,0,0,0,8.24-8.12,35.65,35.65,0,0,0,4.4-11.49,65.49,65.49,0,0,0,1.4-13.57V55.45Z" transform="translate(-8.58 -21.81)"/></g></g></g><path d="M404.1,55.56a59.39,59.39,0,0,0-54.8,36.3A4.6,4.6,0,0,0,351.58,98h0a4.5,4.5,0,0,0,5.94-2.27l.06-.13h.1a50.39,50.39,0,0,1,78.8-19A4.71,4.71,0,0,0,443,76a4.6,4.6,0,0,0-.6-6.4A59.38,59.38,0,0,0,404.1,55.56Zm0,18.3a41.48,41.48,0,0,0-13.7,2.3,4.62,4.62,0,1,0,3.1,8.7h0a31.12,31.12,0,0,1,10.6-1.8A32,32,0,0,1,436.2,115v.1c0,13.5-4.5,44.3-4.5,44.3a4.6,4.6,0,0,0,8.84,2.55,5.08,5.08,0,0,0,.16-.85v-.3s4.7-30.2,4.7-45.7A41.3,41.3,0,0,0,404.1,73.86Zm48.2,10.2a4.39,4.39,0,0,0-4.5,4.29c0,.1,0,.2,0,.31a4,4,0,0,0,.6,2.2,50.49,50.49,0,0,1,6.1,24.2,48.5,48.5,0,0,1-2.1,14.4,4.7,4.7,0,0,0,2.9,5.9,4.61,4.61,0,0,0,5.8-2.9c0-.1.1-.2.1-.3a60.37,60.37,0,0,0,2.5-17.1,59,59,0,0,0-7.3-28.6,4.58,4.58,0,0,0-4.1-2.4ZM375,88a4.49,4.49,0,0,0-3.4,1.8,41.37,41.37,0,0,0-8.7,25.3c0,21.6-3.6,35.6-3.6,35.6a4.62,4.62,0,0,0,8.9,2.5h0v-.3s3.9-15.2,3.9-37.8a31.57,31.57,0,0,1,6.8-19.7,4.7,4.7,0,0,0-.7-6.4A4.58,4.58,0,0,0,375,88Zm29.1,4.2a23,23,0,0,0-22.9,22.9c0,32.2-4.4,49-4.4,49a4.6,4.6,0,0,0,8.8,2.7c0-.2,0-.3.1-.4s4.7-18.3,4.7-51.3a13.8,13.8,0,0,1,27.5,0c0,5.5-.2,11.2-.6,16.8a4.61,4.61,0,0,0,4.2,4.9,4.51,4.51,0,0,0,4.89-4.08s0-.08,0-.12h0c.4-5.7.7-11.6.7-17.4a23,23,0,0,0-23-23Zm-55,14.6a4.5,4.5,0,0,0-4.4,4.3c-.1,1.3-.1,2.7-.1,4a59,59,0,0,0,1.8,14.6,4.71,4.71,0,0,0,5.5,3.4,4.61,4.61,0,0,0,3.4-5.5v-.2a49.08,49.08,0,0,1-1.5-12.3c0-1.1,0-2.3.1-3.4a4.6,4.6,0,0,0-4.2-4.9Zm55,3.7a4.49,4.49,0,0,0-4.5,4.5v.1A279.89,279.89,0,0,1,398,146a4.6,4.6,0,0,0,9.1,1.1v-.2a299,299,0,0,0,1.6-31.8,4.49,4.49,0,0,0-4.4-4.6h-.2Zm15.9,37.8a4.59,4.59,0,0,0-4.6,4.1c-1,9.2-2,15.4-2,15.4a4.6,4.6,0,0,0,8.8,2.68,4.68,4.68,0,0,0,.2-1.28h0s1-6.4,2.1-15.8a4.5,4.5,0,0,0-3.82-5.09H420Zm-20.3,12.1a4.49,4.49,0,0,0-4.5,3.6,40.92,40.92,0,0,1-1.2,4.6,4.62,4.62,0,0,0,8.8,2.8h0s.6-1.9,1.3-5.4a4.5,4.5,0,0,0-3.26-5.47l-.14,0Z" transform="translate(-8.58 -21.81)"/></g></g></g></g></svg>